<svg width="130" height="47" viewBox="0 0 130 47" fill="none" xmlns="http://www.w3.org/2000/svg">
<g clip-path="url(#clip1)">
<path d="M12.6241 28.0002L11.4481 24.6162H4.29612L3.12012 28.0002H0.120117L6.21612 11.2002H9.52812L15.6001 28.0002H12.6241ZM5.20812 22.0242H10.5361L7.87212 14.4402L5.20812 22.0242Z" fill="white"/>
<path d="M27.8467 28.0002H24.7507L19.8307 22.4562V28.0002H17.2387V16.0002H19.8307V21.3042L24.4867 16.0002H27.6547L22.3747 21.8802L27.8467 28.0002Z" fill="white"/>
<path d="M72.1182 17.6802C73.6702 17.6802 74.9582 18.1682 75.9822 19.1442C77.0062 20.1202 77.5182 21.3522 77.5182 22.8402C77.5182 24.3282 77.0062 25.5602 75.9822 26.5362C74.9582 27.5122 73.6702 28.0002 72.1182 28.0002H65.7582V11.2002H76.0782V13.8402H68.5182V17.6802H72.1182ZM72.1182 25.4082C72.8702 25.4082 73.4942 25.1762 73.9902 24.7122C74.5022 24.2322 74.7582 23.6082 74.7582 22.8402C74.7582 22.0722 74.5022 21.4562 73.9902 20.9922C73.4942 20.5122 72.8702 20.2722 72.1182 20.2722H68.5182V25.4082H72.1182Z" fill="white"/>
<path d="M86.9907 16.0002H89.7507L85.1427 28.3842C84.5827 29.9042 83.7987 31.0402 82.7907 31.7922C81.7827 32.5442 80.6147 32.8802 79.2867 32.8002V30.3762C80.1027 30.4242 80.7587 30.2562 81.2547 29.8722C81.7667 29.5042 82.1747 28.9042 82.4787 28.0722L82.5507 27.9042L77.5107 16.0002H80.2707L83.9187 24.7362L86.9907 16.0002Z" fill="white"/>
<path d="M100.773 16.0002V28.0002H98.1809V18.4962H94.1729V22.9602C94.1729 24.8642 93.7569 26.2162 92.9249 27.0162C92.0929 27.8162 90.9089 28.1442 89.3729 28.0002V25.5762C90.1089 25.7042 90.6609 25.5522 91.0289 25.1202C91.3969 24.6882 91.5809 23.9282 91.5809 22.8402V16.0002H100.773Z" fill="white"/>
<path d="M113.297 16.0002H115.889V28.0002H113.297V26.2722C112.321 27.6322 110.921 28.3122 109.097 28.3122C107.449 28.3122 106.041 27.7042 104.873 26.4882C103.705 25.2562 103.121 23.7602 103.121 22.0002C103.121 20.2242 103.705 18.7282 104.873 17.5122C106.041 16.2962 107.449 15.6882 109.097 15.6882C110.921 15.6882 112.321 16.3602 113.297 17.7042V16.0002ZM106.793 24.7602C107.513 25.4802 108.417 25.8402 109.505 25.8402C110.593 25.8402 111.497 25.4802 112.217 24.7602C112.937 24.0242 113.297 23.1042 113.297 22.0002C113.297 20.8962 112.937 19.9842 112.217 19.2642C111.497 18.5282 110.593 18.1602 109.505 18.1602C108.417 18.1602 107.513 18.5282 106.793 19.2642C106.073 19.9842 105.713 20.8962 105.713 22.0002C105.713 23.1042 106.073 24.0242 106.793 24.7602Z" fill="white"/>
<path d="M129.519 28.0002H126.423L121.503 22.4562V28.0002H118.911V16.0002H121.503V21.3042L126.159 16.0002H129.327L124.047 21.8802L129.519 28.0002Z" fill="white"/>
<g filter="url(#filter1)">
<path d="M58.9266 10.2282C61.1761 10.2282 62.9997 8.40464 62.9997 6.15513C62.9997 3.90562 61.1761 2.08203 58.9266 2.08203C56.6771 2.08203 54.8535 3.90562 54.8535 6.15513C54.8535 8.40464 56.6771 10.2282 58.9266 10.2282Z" fill="url(#gradient1)"/>
</g>
<g filter="url(#filter2)">
<path d="M52.7501 24.4537C51.8148 24.6904 51.2471 25.6397 51.4864 26.5758C51.8812 28.1312 50.9371 29.718 49.3826 30.1119L35.0788 33.7448C35.167 33.6356 35.2508 33.5221 35.3277 33.3998L41.6417 23.3368L52.5877 15.2954C54.1421 14.1531 54.4775 11.9663 53.3343 10.4118C52.4776 9.2451 51.1406 8.84775 49.7075 9.08179C49.5713 9.10362 34.6997 12.086 34.6997 12.086C33.5182 12.3261 32.7549 13.4789 32.9942 14.6605C33.2046 15.6953 34.1146 16.4097 35.132 16.4097C35.2761 16.4097 35.422 16.3948 35.5687 16.366L40.7683 15.3102L36.9686 18.1013C36.614 18.3615 36.3119 18.6873 36.0778 19.0602L29.4093 29.6874C28.384 31.3214 28.8774 33.4776 30.5114 34.5028C30.6825 34.6102 30.8607 34.6958 31.0406 34.7709L24.317 36.4783C23.3817 36.7149 22.8167 37.6651 23.0542 38.6013C23.2551 39.3916 23.966 39.9191 24.7458 39.9191C24.8882 39.9191 25.0331 39.9007 25.1772 39.8649L50.2428 33.4994C53.6636 32.6296 55.7412 29.1399 54.8731 25.7183C54.6356 24.7812 53.6819 24.2153 52.7501 24.4537Z" fill="url(#gradient2)"/>
</g>
</g>
<defs>
<filter id="filter1" x="50.8535" y="2.08203" width="16.1465" height="16.146" filterUnits="userSpaceOnUse" color-interpolation-filters="sRGB">
<feFlood flood-opacity="0" result="BackgroundImageFix"/>
<feColorMatrix in="SourceAlpha" type="matrix" values="0 0 0 0 0 0 0 0 0 0 0 0 0 0 0 0 0 0 127 0" result="hardAlpha"/>
<feOffset dy="4"/>
<feGaussianBlur stdDeviation="2"/>
<feComposite in2="hardAlpha" operator="out"/>
<feColorMatrix type="matrix" values="0 0 0 0 0 0 0 0 0 0 0 0 0 0 0 0 0 0 0.25 0"/>
<feBlend mode="normal" in2="BackgroundImageFix" result="effect1"/>
<feBlend mode="normal" in="SourceGraphic" in2="effect1" result="shape"/>
</filter>
<filter id="filter2" x="19" y="9.01758" width="40.0703" height="38.9014" filterUnits="userSpaceOnUse" color-interpolation-filters="sRGB">
<feFlood flood-opacity="0" result="BackgroundImageFix"/>
<feColorMatrix in="SourceAlpha" type="matrix" values="0 0 0 0 0 0 0 0 0 0 0 0 0 0 0 0 0 0 127 0" result="hardAlpha"/>
<feOffset dy="4"/>
<feGaussianBlur stdDeviation="2"/>
<feComposite in2="hardAlpha" operator="out"/>
<feColorMatrix type="matrix" values="0 0 0 0 0 0 0 0 0 0 0 0 0 0 0 0 0 0 0.25 0"/>
<feBlend mode="normal" in2="BackgroundImageFix" result="effect1"/>
<feBlend mode="normal" in="SourceGraphic" in2="effect1" result="shape"/>
</filter>
<linearGradient id="gradient1" x1="58.9266" y1="2.08203" x2="58.9266" y2="10.2282" gradientUnits="userSpaceOnUse">
<stop stop-color="#539DAF"/>
<stop offset="0.213542" stop-color="#5DDEC1"/>
</linearGradient>
<linearGradient id="gradient2" x1="39.0352" y1="9.01758" x2="39.0352" y2="39.9191" gradientUnits="userSpaceOnUse">
<stop stop-color="#539DAF"/>
<stop offset="0.213542" stop-color="#5DDEC1"/>
</linearGradient>
<clipPath id="clip1">
<rect width="130" height="47" fill="white"/>
</clipPath>
</defs>
</svg>
