<svg width="96" height="96" viewBox="0 0 96 96" fill="none" xmlns="http://www.w3.org/2000/svg">
<path d="M86.2199 20.58C91.6199 20.58 95.9999 15.98 95.9999 10.29C95.9999 4.61 91.6199 0 86.2199 0C80.8199 0 76.4499 4.6 76.4499 10.29C76.4499 15.97 80.8299 20.58 86.2199 20.58ZM71.3999 56.52C69.1599 57.12 67.7999 59.52 68.3699 61.88C69.3099 65.81 67.0499 69.82 63.3199 70.81L28.9899 80C29.1999 79.72 29.3999 79.44 29.5899 79.13L44.7399 53.7L71.0099 33.38C72.8186 31.9347 74.0107 29.8562 74.3449 27.5652C74.6791 25.2742 74.1304 22.9418 72.8099 21.04C70.7499 18.1 67.5399 17.09 64.0999 17.68L28.0799 25.28C26.6858 25.6183 25.4783 26.486 24.713 27.6993C23.9476 28.9126 23.6847 30.3762 23.9799 31.78C24.1889 32.9995 24.8165 34.108 25.7547 34.9147C26.6928 35.7214 27.8828 36.1759 29.1199 36.2C29.4599 36.2 29.8199 36.16 30.1599 36.09L42.6399 33.42L33.5199 40.47C32.6646 41.1362 31.9421 41.9571 31.3899 42.89L15.3899 69.74C14.2007 71.7241 13.8118 74.0867 14.3021 76.3473C14.7925 78.6079 16.1254 80.597 18.0299 81.91C18.4299 82.18 18.8699 82.39 19.2999 82.58L3.15986 86.9C0.919859 87.5 -0.440141 89.9 0.129859 92.26C0.609859 94.26 2.31986 95.59 4.18986 95.59C4.52986 95.59 4.87986 95.54 5.22986 95.45L65.3799 79.37C73.5899 77.17 78.5799 68.36 76.4999 59.71C76.3847 59.1599 76.1598 58.6386 75.8385 58.1774C75.5173 57.7162 75.1063 57.3245 74.6302 57.0257C74.1541 56.727 73.6226 56.5274 73.0676 56.4387C72.5125 56.3501 71.9453 56.3744 71.3999 56.51V56.52Z" fill="#539DAF"/>
</svg>
