<svg width="40" height="38" viewBox="0 0 40 38" fill="none" xmlns="http://www.w3.org/2000/svg">
<path d="M35.9266 8.14619C38.1761 8.14619 39.9997 6.32261 39.9997 4.0731C39.9997 1.82359 38.1761 0 35.9266 0C33.6771 0 31.8535 1.82359 31.8535 4.0731C31.8535 6.32261 33.6771 8.14619 35.9266 8.14619Z" fill="#539DAF"/>
<path d="M29.7501 22.3717C28.8148 22.6084 28.2471 23.5577 28.4864 24.4938C28.8812 26.0492 27.9371 27.636 26.3826 28.0299L12.0788 31.6628C12.167 31.5536 12.2508 31.4401 12.3277 31.3178L18.6416 21.2548L29.5877 13.2134C31.1421 12.0711 31.4775 9.88427 30.3343 8.32981C29.4776 7.16307 28.1406 6.76572 26.7075 6.99976C26.5713 7.02159 11.6997 10.004 11.6997 10.004C10.5182 10.2441 9.7549 11.3969 9.9942 12.5785C10.2046 13.6133 11.1146 14.3277 12.132 14.3277C12.2761 14.3277 12.422 14.3128 12.5687 14.284L17.7683 13.2282L13.9686 16.0193C13.614 16.2795 13.3119 16.6053 13.0778 16.9782L6.4093 27.6054C5.384 29.2394 5.87742 31.3956 7.5114 32.4208C7.6825 32.5282 7.8607 32.6138 8.0406 32.6889L1.31702 34.3963C0.381711 34.6329 -0.183319 35.5831 0.0542215 36.5193C0.255081 37.3096 0.965951 37.8371 1.74581 37.8371C1.88816 37.8371 2.03313 37.8187 2.17723 37.7829L27.2428 31.4174C30.6636 30.5476 32.7412 27.0579 31.8731 23.6363C31.6356 22.6992 30.6819 22.1333 29.7501 22.3717Z" fill="#539DAF"/>
</svg>
