<svg width="132" height="132" viewBox="0 0 132 132" fill="none" xmlns="http://www.w3.org/2000/svg">
<path d="M45.6919 60.924H27.9225C25.807 60.924 24.0085 60.1838 22.5275 58.7028C21.0475 57.2219 20.3064 55.424 20.3064 53.3079V50.7706C20.3064 45.1645 22.29 40.3788 26.2568 36.412C30.2233 32.4465 35.0098 30.463 40.6154 30.463H45.6919C47.0667 30.463 48.2561 29.9604 49.2614 28.9559C50.2661 27.951 50.7684 26.7615 50.7684 25.3864V15.2317C50.7684 13.8569 50.2658 12.6663 49.2614 11.6613C48.2564 10.6578 47.067 10.1543 45.6919 10.1543H40.6154C35.1148 10.1543 29.8671 11.2262 24.869 13.367C19.8713 15.5092 15.5486 18.405 11.8991 22.0545C8.24983 25.7024 5.35494 30.0254 3.21302 35.0236C1.0711 40.0212 0 45.2703 0 50.7703V106.615C0 110.848 1.48009 114.442 4.44166 117.405C7.40351 120.366 11.0005 121.846 15.231 121.846H45.6938C49.9241 121.846 53.52 120.366 56.4821 117.405C59.4431 114.442 60.924 110.848 60.924 106.615V76.155C60.924 71.9228 59.4431 68.3286 56.4801 65.3656C53.5194 62.4049 49.9221 60.924 45.6919 60.924Z" fill="#3C3E3F"/>
<path d="M127.561 65.3656C124.6 62.4049 121.004 60.924 116.772 60.924H99.0033C96.8888 60.924 95.0887 60.1838 93.6102 58.7028C92.1288 57.2219 91.3891 55.424 91.3891 53.3079V50.7706C91.3891 45.1645 93.3727 40.3788 97.3376 36.412C101.303 32.4465 106.089 30.463 111.697 30.463H116.773C118.148 30.463 119.338 29.9604 120.342 28.9559C121.346 27.951 121.851 26.7615 121.851 25.3864V15.2317C121.851 13.8569 121.347 12.6663 120.342 11.6613C119.338 10.6578 118.148 10.1543 116.773 10.1543H111.697C106.194 10.1543 100.947 11.2262 95.9475 13.367C90.9507 15.5092 86.6294 18.405 82.9798 22.0545C79.3303 25.7024 76.434 30.0254 74.293 35.0236C72.1516 40.0212 71.0791 45.2703 71.0791 50.7703V106.615C71.0791 110.848 72.5606 114.442 75.5213 117.405C78.4823 120.366 82.0785 121.846 86.3095 121.846H116.771C121.002 121.846 124.598 120.366 127.559 117.405C130.522 114.442 132 110.848 132 106.615V76.155C132 71.9225 130.522 68.3286 127.561 65.3656Z" fill="#3C3E3F"/>
</svg>
